<svg height="512" viewBox="0 0 58 58" width="512" xmlns="http://www.w3.org/2000/svg"><g id="Page-1" fill="none" fill-rule="evenodd"><g id="110---Mute-Microphone" fill-rule="nonzero"><circle id="Oval" cx="22" cy="7" fill="#000" r="1"/><circle id="Oval" cx="22" cy="11" fill="#000" r="1"/><circle id="Oval" cx="30" cy="7" fill="#000" r="1"/><circle id="Oval" cx="30" cy="11" fill="#000" r="1"/><circle id="Oval" cx="30" cy="15" fill="#000" r="1"/><circle id="Oval" cx="30" cy="19" fill="#000" r="1"/><circle id="Oval" cx="26" cy="5" fill="#000" r="1"/><circle id="Oval" cx="26" cy="9" fill="#000" r="1"/><circle id="Oval" cx="26" cy="13" fill="#000" r="1"/><path id="Shape" d="m33 48h-8c-8.2803876-.0093685-14.9906315-6.7196124-15-15v-3c0-.5522847.4477153-1 1-1s1 .4477153 1 1v3c.008266 7.1762751 5.8237249 12.991734 13 13h8c7.1762751-.008266 12.991734-5.8237249 13-13v-3c0-.5522847.4477153-1 1-1s1 .4477153 1 1v3c-.0093685 8.2803876-6.7196124 14.9906315-15 15z" fill="#bdc3c7"/><path id="Shape" d="m41 8v20h-24v-20c0-4.418278 3.581722-8 8-8h8c4.418278 0 8 3.581722 8 8z" fill="#3f5c6c"/><path id="Shape" d="m41 32v2c0 4.418278-3.581722 8-8 8h-8c-4.418278 0-8-3.581722-8-8v-2z" fill="#46b29d"/><g fill="#547580"><circle id="Oval" cx="22" cy="7" r="1"/><circle id="Oval" cx="22" cy="11" r="1"/><circle id="Oval" cx="22" cy="15" r="1"/><circle id="Oval" cx="22" cy="19" r="1"/><circle id="Oval" cx="22" cy="23" r="1"/><circle id="Oval" cx="30" cy="7" r="1"/><circle id="Oval" cx="30" cy="11" r="1"/><circle id="Oval" cx="30" cy="15" r="1"/><circle id="Oval" cx="30" cy="19" r="1"/><circle id="Oval" cx="30" cy="23" r="1"/><circle id="Oval" cx="26" cy="5" r="1"/><circle id="Oval" cx="26" cy="9" r="1"/><circle id="Oval" cx="26" cy="13" r="1"/><circle id="Oval" cx="26" cy="17" r="1"/><circle id="Oval" cx="26" cy="21" r="1"/></g><path id="Rectangle-path" d="m17 28h24v4h-24z" fill="#65ddb9"/><path id="Rectangle-path" d="m27 42h4v12h-4z" fill="#14a085"/><path id="Shape" d="m22 54h14c1.6568542 0 3 1.3431458 3 3 0 .5522847-.4477153 1-1 1h-18c-.5522847 0-1-.4477153-1-1 0-1.6568542 1.3431458-3 3-3z" fill="#41767f"/><rect id="Rectangle-path" fill="#14a085" height="10" rx="1" width="4" x="9" y="23"/><path id="Rectangle-path" d="m13 26h4v4h-4z" fill="#65ddb9"/><path id="Shape" d="m7 26h2v4h-2c-1.1045695 0-2-.8954305-2-2s.8954305-2 2-2z" fill="#65ddb9"/><rect id="Rectangle-path" fill="#14a085" height="10" rx="1" transform="matrix(-1 0 0 -1 94 56)" width="4" x="45" y="23"/><path id="Rectangle-path" d="m41 26h4v4h-4z" fill="#65ddb9" transform="matrix(-1 0 0 -1 86 56)"/><path id="Shape" d="m51 26h2v4h-2c-1.1045695 0-2-.8954305-2-2s.8954305-2 2-2z" fill="#65ddb9" transform="matrix(-1 0 0 -1 102 56)"/><path id="Shape" d="m55 58c-.7958256.0010434-1.5592097-.3153237-2.121-.879l-52-52c-1.13691663-1.17713666-1.12065712-3.04825433.03654427-4.20545573 1.1572014-1.15720139 3.02831907-1.1734609 4.20545573-.03654427l52 52c.8577237.8579828 1.1142657 2.1481098.6500339 3.2689637-.4642317 1.1208538-1.5578462 1.8517773-2.7710339 1.8520363z" fill="#ff5364"/></g></g></svg>