<svg height="512" viewBox="0 0 61 61" width="512" xmlns="http://www.w3.org/2000/svg"><g id="Page-1" fill="none" fill-rule="evenodd"><g id="110---Mute-Microphone" fill-rule="nonzero"><path id="Shape" d="m42 33v2c0 4.418278-3.581722 8-8 8h-8c-4.418278 0-8-3.581722-8-8v-2z" fill="#7f8e94"/><path id="Shape" d="m39 33v2c0 4.418278-3.581722 8-8 8h3c4.418278 0 8-3.581722 8-8v-2z" fill="#545c60"/><path id="Rectangle-path" d="m18 31h24v4h-24z" fill="#9e9e9e"/><path id="Shape" d="m42 9v22h-24v-22c0-4.418278 3.581722-8 8-8h8c4.418278 0 8 3.581722 8 8z" fill="#ffdc00"/><path id="Shape" d="m34 1h-3c4.418278 0 8 3.581722 8 8v22h3v-22c0-4.418278-3.581722-8-8-8z" fill="#fec108"/><path id="Rectangle-path" d="m28 43h4v12h-4z" fill="#37474f"/><path id="Shape" d="m23 55h14c1.6568542 0 3 1.3431458 3 3 0 .5522847-.4477153 1-1 1h-18c-.5522847 0-1-.4477153-1-1 0-1.6568542 1.3431458-3 3-3z" fill="#02a9f4"/><path id="Shape" d="m37 55h-3c1.6568542 0 3 1.3431458 3 3 0 .5522847-.4477153 1-1 1h3c.5522847 0 1-.4477153 1-1 0-1.6568542-1.3431458-3-3-3z" fill="#0377bc"/><rect id="Rectangle-path" fill="#02a9f4" height="10" rx="1" width="4" x="10" y="24"/><path id="Rectangle-path" d="m14 27h4v4h-4z" fill="#37474f"/><path id="Shape" d="m8 27h2v4h-2c-1.1045695 0-2-.8954305-2-2s.8954305-2 2-2z" fill="#37474f"/><rect id="Rectangle-path" fill="#02a9f4" height="10" rx="1" transform="matrix(-1 0 0 -1 96 58)" width="4" x="46" y="24"/><path id="Rectangle-path" d="m42 27h4v4h-4z" fill="#37474f" transform="matrix(-1 0 0 -1 88 58)"/><path id="Shape" d="m52 27h2v4h-2c-1.1045695 0-2-.8954305-2-2s.8954305-2 2-2z" fill="#37474f" transform="matrix(-1 0 0 -1 104 58)"/><path id="Shape" d="m56 59c-.7958256.0010434-1.5592097-.3153237-2.121-.879l-52-52c-1.13691663-1.17713666-1.12065712-3.04825433.03654427-4.20545573 1.1572014-1.15720139 3.02831907-1.1734609 4.20545573-.03654427l52 52c.8577237.8579828 1.1142657 2.1481098.6500339 3.2689637-.4642317 1.1208538-1.5578462 1.8517773-2.7710339 1.8520363z" fill="#ef314c"/><g fill="#000"><circle id="Oval" cx="23" cy="8" r="1"/><circle id="Oval" cx="23" cy="12" r="1"/><circle id="Oval" cx="31" cy="8" r="1"/><circle id="Oval" cx="31" cy="12" r="1"/><circle id="Oval" cx="31" cy="16" r="1"/><circle id="Oval" cx="31" cy="20" r="1"/><circle id="Oval" cx="27" cy="6" r="1"/><circle id="Oval" cx="27" cy="10" r="1"/><circle id="Oval" cx="27" cy="14" r="1"/><path id="Shape" d="m58.828 53.172-11.781-11.782c1.1132795-1.9579352 1.7686727-4.1425791 1.917-6.39h.036c1.1045695 0 2-.8954305 2-2v-1h1c1.6568542 0 3-1.3431458 3-3s-1.3431458-3-3-3h-1v-1c0-1.1045695-.8954305-2-2-2h-2c-1.1045695 0-2 .8954305-2 2v1h-1.985c0-.807 0-1.668 0-2.605-.008-3.648-.015-8.338-.015-14.395-.0055111-4.96827817-4.0317218-8.99448887-9-9h-8c-4.9682782.00551113-8.9944889 4.03172183-9 9v2.344l-10.172-10.172c-1.58212916-1.51213879-4.07387084-1.51213879-5.656 0-1.56152775 1.56199941-1.56152775 4.09400059 0 5.656l15.828 15.828v3.344h-2v-1c0-1.1045695-.8954305-2-2-2h-2c-1.1045695 0-2 .8954305-2 2v1h-1c-1.65685425 0-3 1.3431458-3 3s1.34314575 3 3 3h1v1c0 1.1045695.8954305 2 2 2h.051c.5288111 7.8704075 7.0608566 13.9877824 14.949 14h1v5h-4c-2.209139 0-4 1.790861-4 4 0 1.1045695.8954305 2 2 2h18c1.1045695 0 2-.8954305 2-2 0-2.209139-1.790861-4-4-4h-4v-5h1c2.5910455.0011047 5.1377995-.6719413 7.39-1.953l11.782 11.781c1.0042979 1.0398263 2.4915116 1.4568504 3.8900293 1.0907886 1.3985177-.3660617 2.4906976-1.4582416 2.8567593-2.8567593.3660618-1.3985177-.0509623-2.8857314-1.0907886-3.8900293zm-16.065-16.065c.172-.661.232-1.525.249-5.107h1.988v1c-.0002178 1.0891352.8710826 1.9782173 1.96 2-.1311153 1.7155566-.6036998 3.3876217-1.39 4.918zm-1.75-5.107c-.007 1.616-.022 2.632-.05 3.306l-3.307-3.306zm10.987-4c.5522847 0 1 .4477153 1 1s-.4477153 1-1 1h-1v-2zm-5-3h2v8h-2zm-2 3v2h-1.983v-2zm-26-19c.0049584-3.86393756 3.1360624-6.99504164 7-7h8c3.8639376.00495836 6.9950416 3.13606244 7 7 0 6.058.007 10.749.012 14.4v3.523c0 .028-.016.051-.016.08v3h-5.34l-16.656-16.659zm9.344 25h-9.344v-2h3c.5522847 0 1-.4477153 1-1s-.4477153-1-1-1h-3v-5.344zm4.356 8h-.682-.018-6c-3.4756199-.0066473-6.420937-2.5603905-6.92-6h11.264l5.7 5.7c-1.0921714.2739516-2.2205071.3751779-3.344.3zm-15.7-14v2h-2v-2zm-6-3h2v8h-2zm-3 5c-.55228475 0-1-.4477153-1-1s.44771525-1 1-1h1v2zm18 17c-6.7873052-.0110214-12.4257007-5.2379664-12.95-12.005 1.0830553-.0270823 1.9476301-.9116087 1.95-1.995v-1h2v3c.0055111 4.9682782 4.0317218 8.9944889 9 9h1v3zm13 11h-18c0-1.1045695.8954305-2 2-2h14c1.1034291.0027483 1.9972517.8965709 2 2zm-10-4v-10h2v10zm5-7h-1v-3h.3c1.4715639.0729943 2.9408082-.1842943 4.3-.753l2.318 2.317c-1.8302316.9429326-3.8591486 1.4352483-5.918 1.436zm23.414 10.414c-.791167.755814-2.036833.755814-2.828 0l-23.114-23.114-.013-.012-12.747-12.747-.012-.013-16.114-16.114c-.75794442-.78475777-.74710475-2.03216955.02436285-2.80363715s2.01887938-.78230727 2.80363715-.02436285l11.874 11.873.012.013 17.228 17.228.013.012 22.873 22.874c.7807639.7809997.7807639 2.0470003 0 2.828z"/></g></g></g></svg>