<svg height="512" viewBox="0 0 58 58" width="512" xmlns="http://www.w3.org/2000/svg"><g id="Page-1" fill="none" fill-rule="evenodd"><g id="111---Standbye" fill-rule="nonzero"><circle id="Oval" cx="29" cy="29" fill="#e64c3c" r="29"/><circle id="Oval" cx="29" cy="29" fill="#fb7b76" r="25"/><path id="Shape" d="m29 51c-.5522847 0-1-.4477153-1-1s.4477153-1 1-1c1.6045354.001111 3.2033704-.1909373 4.762-.572.3522894-.1009376.731571-.0010928.9884992.2602195.2569282.2613122.3503421.6422287.243459.9927601-.1068831.3505313-.3969401.6145209-.7559582.6880204-1.7142783.4201741-3.4729801.6320376-5.238.631z" fill="#fff"/><path id="Shape" d="m39 48.463c-.457222.0001552-.856317-.3098156-.9693177-.7528537-.1130007-.4430382.0888768-.9062922.4903177-1.1251463 1.0044678-.5465586 1.9608804-1.1771419 2.859-1.885.2802749-.2216833.6575261-.2770023.9896469-.1451188s.5686541.4309332.6205.7845c.051846.3535668-.088872.7079355-.3691469.9296188-.9873511.7789592-2.038758 1.4730952-3.143 2.075-.1467626.0793056-.3111854.1202394-.478.119z" fill="#fff"/><path id="Shape" d="m46 42.315c-.3755788-.0005957-.7191545-.2115871-.8895606-.5462833s-.1389049-.736653.0815606-1.0407167c2.4834188-3.4053189 3.81726-7.5133257 3.808-11.728 0-.5522847.4477153-1 1-1s1 .4477153 1 1c.0093772 4.6361142-1.4586179 9.1546388-4.191 12.9-.1875508.2600184-.4883998.4143476-.809.415z" fill="#fff"/><g fill="#802f34"><path id="Shape" d="m29 55c-14.3527783-.0159821-25.98401786-11.6472217-26-26-.00698492-3.5798739.73241089-7.1218897 2.171-10.4.12802221-.3490447.43911608-.598253.80768661-.6470143s.73376711.1109747.94815238.4147195c.21438527.3037447.24256445.7013501.07316101 1.0322948-1.32629731 3.0263257-2.00744034 6.2958123-2 9.6 0 9.7070939 5.8474123 18.4583648 14.8155976 22.1731088 8.9681854 3.714744 19.2910132 1.6614059 26.1549651-5.2025461 6.863952-6.8639519 8.9172901-17.1867797 5.2025461-26.1549651-3.714744-8.9681853-12.4660149-14.8155976-22.1731088-14.8155976-3.3042355-.00790911-6.5738177.67325385-9.6 2-.3294859.1561038-.7178184.12051515-1.0134419-.09287666-.2956236-.21339182-.4516812-.57076379-.4072679-.93264332.0444134-.36187952.2822581-.67090802.6207098-.80648002 3.2781885-1.43800748 6.8202912-2.17639967 10.4-2.168 14.3594035 0 26 11.6405965 26 26s-11.6405965 26-26 26z"/><path id="Shape" d="m9.8 14c-.38811192-.0002099-.74105034-.2249685-.90538835-.5765705-.16433802-.3516019-.11039148-.7665377.13838835-1.0644295.66156482-.7915677 1.3687674-1.543847 2.118-2.253.2597321-.24544146.6306759-.33367331.9731005-.23145945.3424246.10221385.6043075.37934465.687.72699995.0826925.3476554-.0263684.713018-.2861005.9584595-.6922525.6550136-1.3456963 1.3498611-1.957 2.081-.1901006.2276288-.4714311.3591361-.768.359z"/><path id="Shape" d="m37.663 25c-.3576137.0003484-.6881932-.1902972-.867-.5-.6081629-1.0537743-1.424795-1.9724854-2.4-2.7-.4418278-.3313708-.5313708-.9581722-.2-1.4s.9581722-.5313708 1.4-.2c1.1882854.891291 2.1839308 2.0138157 2.927 3.3.2762972.4780185.1129053 1.0895071-.365 1.366-.1503483.0874118-.3210882.1336322-.495.134z"/><path id="Shape" d="m29 40c-4.7347345 0-8.9382618-3.029731-10.4355163-7.5214946-1.4972545-4.4917635.0477287-9.4376647 3.8355163-12.2785054.4418278-.3313708 1.0686291-.2418278 1.4.2.3313708.4418278.2418278 1.0686291-.2 1.4-3.3858752 2.5394064-4.5449323 7.0948438-2.7844367 10.9436607 1.7604955 3.8488169 5.9648193 5.9509788 10.1001702 5.0500851 4.1353508-.9008937 7.0842665-4.5614018 7.0842665-8.7937458 0-.3-.015-.6-.044-.9-.0552284-.5495233.3454767-1.0397715.895-1.0949999.5495233-.0552285 1.0397715.3454766 1.095.8949999.036.3626667.054.7293333.054 1.1-.0071635 6.0721626-4.9278374 10.9928365-11 11z"/><path id="Shape" d="m29 27c-.5522847 0-1-.4477153-1-1v-10c0-.5522847.4477153-1 1-1s1 .4477153 1 1v10c0 .5522847-.4477153 1-1 1z"/></g></g></g></svg>