<svg height="512" viewBox="0 0 60 60" width="512" xmlns="http://www.w3.org/2000/svg"><g id="Page-1" fill="none" fill-rule="evenodd"><g id="111---Standbye" fill-rule="nonzero"><circle id="Oval" cx="30.056" cy="30.111" fill="#a4c400" r="29"/><path id="Shape" d="m30.056 1.111c-.504 0-1.004.01266667-1.5.038 15.4192225.79012792 27.5158989 13.5225465 27.5158989 28.962s-12.0966764 28.1718721-27.5158989 28.962c.496.0253333.996.038 1.5.038 16.0162577 0 29-12.9837423 29-29s-12.9837423-29-29-29z" fill="#90ac00"/><circle id="Oval" cx="30.056" cy="30.111" fill="#60a917" r="25"/><path id="Shape" d="m30.056 5.111c-.5 0-1 .019-1.5.049 13.1671239.83401357 23.4196519 11.7564891 23.4196519 24.95s-10.252528 24.1159864-23.4196519 24.95c.5.03 1 .049 1.5.049 13.8071187 0 25-11.1928813 25-25s-11.1928813-25-25-25z" fill="#549414"/><path id="Shape" d="m38.663 26c-.3576137.0003484-.6881932-.1902972-.867-.5-.6081629-1.0537743-1.424795-1.9724854-2.4-2.7-.4418278-.3313708-.5313708-.9581722-.2-1.4s.9581722-.5313708 1.4-.2c1.1882854.891291 2.1839308 2.0138157 2.927 3.3.2762972.4780185.1129053 1.0895071-.365 1.366-.1503483.0874118-.3210882.1336322-.495.134z" fill="#f5f5f5"/><path id="Shape" d="m30 41c-4.7347345 0-8.9382618-3.029731-10.4355163-7.5214946-1.4972545-4.4917635.0477287-9.4376647 3.8355163-12.2785054.4418278-.3313708 1.0686291-.2418278 1.4.2.3313708.4418278.2418278 1.0686291-.2 1.4-3.3858752 2.5394064-4.5449323 7.0948438-2.7844367 10.9436607 1.7604955 3.8488169 5.9648193 5.9509788 10.1001702 5.0500851 4.1353508-.9008937 7.0842665-4.5614018 7.0842665-8.7937458 0-.3-.015-.6-.044-.9-.0552284-.5495233.3454767-1.0397715.895-1.0949999.5495233-.0552285 1.0397715.3454766 1.095.8949999.036.3626667.054.7293333.054 1.1-.0071635 6.0721626-4.9278374 10.9928365-11 11z" fill="#f5f5f5"/><path id="Shape" d="m30 28c-.5522847 0-1-.4477153-1-1v-10c0-.5522847.4477153-1 1-1s1 .4477153 1 1v10c0 .5522847-.4477153 1-1 1z" fill="#f5f5f5"/><g fill="#000"><path id="Shape" d="m30 0c-16.5685425 0-30 13.4314575-30 30s13.4314575 30 30 30 30-13.4314575 30-30c-.018737-16.5607751-13.4392249-29.98126296-30-30zm0 58c-15.463973 0-28-12.536027-28-28s12.536027-28 28-28 28 12.536027 28 28c-.0176345 15.4566626-12.5433374 27.9823655-28 28z"/><path id="Shape" d="m35.238 51.369c.3590181-.0734995.6490751-.3374891.7559582-.6880204.1068831-.3505314.0134692-.7314479-.243459-.9927601-.2569282-.2613123-.6362098-.3611571-.9884992-.2602195-1.5586296.3810627-3.1574646.573111-4.762.572-.5522847 0-1 .4477153-1 1s.4477153 1 1 1c1.7650199.0010376 3.5237217-.2108259 5.238-.631z"/><path id="Shape" d="m40 49.463c.1667367.0001506.3308106-.0418138.477-.122 1.104242-.6019048 2.1556489-1.2960408 3.143-2.075.4006141-.3512722.4554557-.9549596.1246995-1.3726727-.3307562-.417713-.9309371-.5027364-1.3646995-.1933273-.8976887.7088468-1.8537684 1.3404348-2.858 1.888-.3980215.2201988-.5972859.6812764-.4849179 1.1220508.1123681.4407743.5080542.7501793.9629179.7529492z"/><path id="Shape" d="m47.809 42.9c2.7323821-3.7453612 4.2003772-8.2638858 4.191-12.9 0-.5522847-.4477153-1-1-1s-1 .4477153-1 1c.0089697 4.214786-1.3252252 8.3228033-3.809 11.728-.2932003.4467484-.1833582 1.0450717.2494062 1.358545s1.0355133.2313161 1.3685938-.186545z"/><path id="Shape" d="m30 4c-3.5799929-.00713892-7.1221075.73261809-10.4 2.172-.3515292.12617922-.603445.43773808-.653235.80789332-.04979.37015525.1108452.73720681.4165381.95178968s.7054884.24092888 1.0366969.068317c3.0261823-1.32674615 6.2957645-2.00790911 9.6-2 13.254834 0 24 10.745166 24 24s-10.745166 24-24 24-24-10.745166-24-24c-.00744034-3.3041877.67370269-6.5736743 2-9.6.1561038-.3294859.12051515-.7178184-.09287666-1.0134419-.21339182-.2956236-.57076379-.4516812-.93264332-.4072679-.36187952.0444134-.67090802.2822581-.80648002.6207098-1.43755831 3.2783321-2.17593053 6.8203391-2.168 10.4 0 10.5160184 6.3346966 19.9965618 16.0502308 24.0208678 9.7155341 4.024306 20.8985976 1.7998564 28.3345455-5.6360915s9.6603975-18.6190114 5.6360915-28.3345455c-4.024306-9.7155342-13.5048494-16.0502308-24.0208678-16.0502308z"/><path id="Shape" d="m10.8 15c.2965689.0001361.5778994-.1313712.768-.359.6113037-.7311389 1.2647475-1.4259864 1.957-2.081.2597321-.2454415.368793-.6108041.2861005-.9584595-.0826925-.3476553-.3445754-.6247861-.687-.727-.3424246-.1022138-.7133684-.013982-.9731005.2314595-.7492326.709153-1.4564352 1.4614323-2.118 2.253-.24877983.2978918-.30272637.7128276-.13838835 1.0644295.16433805.351602.51727645.5763606.90538835.5765705z"/></g></g></g></svg>